<svg xmlns="http://www.w3.org/2000/svg" viewBox="0 0 600 200" width="600" height="200">
  <!-- Background -->
  <rect width="600" height="200" rx="20" ry="20" fill="#333366" />
  
  <!-- Film reel left -->
  <circle cx="100" cy="100" r="60" fill="#222244" stroke="#ffffff" stroke-width="3" />
  <circle cx="100" cy="100" r="45" fill="#333366" stroke="#ffffff" stroke-width="2" />
  <circle cx="100" cy="100" r="15" fill="#222244" stroke="#ffffff" stroke-width="2" />
  
  <!-- Film reel holes -->
  <circle cx="100" cy="40" r="8" fill="#222244" stroke="#ffffff" stroke-width="2" />
  <circle cx="140" cy="100" r="8" fill="#222244" stroke="#ffffff" stroke-width="2" />
  <circle cx="100" cy="160" r="8" fill="#222244" stroke="#ffffff" stroke-width="2" />
  <circle cx="60" cy="100" r="8" fill="#222244" stroke="#ffffff" stroke-width="2" />
  <circle cx="124" cy="60" r="8" fill="#222244" stroke="#ffffff" stroke-width="2" />
  <circle cx="124" cy="140" r="8" fill="#222244" stroke="#ffffff" stroke-width="2" />
  <circle cx="76" cy="60" r="8" fill="#222244" stroke="#ffffff" stroke-width="2" />
  <circle cx="76" cy="140" r="8" fill="#222244" stroke="#ffffff" stroke-width="2" />
  
  <!-- Text -->
  <text x="180" y="90" font-family="Arial" font-size="50" font-weight="bold" fill="#ffffff">CineBook</text>
  <text x="180" y="140" font-family="Arial" font-size="60" font-weight="bold" fill="#ffffff">CDO</text>
  
  <!-- Popcorn icon -->
  <g transform="translate(480, 100) scale(0.6)">
    <!-- Popcorn box -->
    <path d="M-30,50 L30,50 L40,0 L-40,0 Z" fill="#ff4444" stroke="#ffffff" stroke-width="3" />
    <path d="M-35,-10 L35,-10 L30,0 L-30,0 Z" fill="#ffffff" stroke="#ff4444" stroke-width="2" />
    
    <!-- Popcorn pieces -->
    <circle cx="-15" cy="-5" r="12" fill="#ffffcc" stroke="#ffcc66" stroke-width="2" />
    <circle cx="0" cy="-15" r="12" fill="#ffffcc" stroke="#ffcc66" stroke-width="2" />
    <circle cx="15" cy="-5" r="12" fill="#ffffcc" stroke="#ffcc66" stroke-width="2" />
    <circle cx="-25" cy="10" r="12" fill="#ffffcc" stroke="#ffcc66" stroke-width="2" />
    <circle cx="-5" cy="15" r="12" fill="#ffffcc" stroke="#ffcc66" stroke-width="2" />
    <circle cx="15" cy="20" r="12" fill="#ffffcc" stroke="#ffcc66" stroke-width="2" />
    <circle cx="25" cy="5" r="12" fill="#ffffcc" stroke="#ffcc66" stroke-width="2" />
  </g>
  
  <!-- Tagline -->
  <text x="300" y="180" font-family="Arial" font-size="16" text-anchor="middle" fill="#ffffff">Your Gateway to Cinematic Experiences in Cagayan de Oro</text>
</svg>
